<?xml version="1.0" encoding="UTF-8" standalone="no"?>
<!-- Created with Inkscape (http://www.inkscape.org/) -->

<svg
   xmlns:dc="http://purl.org/dc/elements/1.1/"
   xmlns:cc="http://creativecommons.org/ns#"
   xmlns:rdf="http://www.w3.org/1999/02/22-rdf-syntax-ns#"
   xmlns:svg="http://www.w3.org/2000/svg"
   xmlns="http://www.w3.org/2000/svg"
   xmlns:xlink="http://www.w3.org/1999/xlink"
   xmlns:sodipodi="http://sodipodi.sourceforge.net/DTD/sodipodi-0.dtd"
   xmlns:inkscape="http://www.inkscape.org/namespaces/inkscape"
   sodipodi:docname="datanet-logo.svg"
   inkscape:version="0.48.3.1 r9886"
   version="1.1"
   id="svg2"
   height="1052.3622047"
   width="744.09448819">
  <sodipodi:namedview
     id="base"
     pagecolor="#ffffff"
     bordercolor="#666666"
     borderopacity="1.0"
     inkscape:pageopacity="0.0"
     inkscape:pageshadow="2"
     inkscape:zoom="0.98994949"
     inkscape:cx="221.79136"
     inkscape:cy="938.37732"
     inkscape:document-units="px"
     inkscape:current-layer="layer1"
     showgrid="false"
     inkscape:window-width="1920"
     inkscape:window-height="1027"
     inkscape:window-x="0"
     inkscape:window-y="0"
     inkscape:window-maximized="1"
     showguides="true"
     inkscape:guide-bbox="true">
    <sodipodi:guide
       id="guide3893"
       position="184.85792,937.42156"
       orientation="0,1" />
    <sodipodi:guide
       id="guide3895"
       position="192.93914,772.7667"
       orientation="0,1" />
    <sodipodi:guide
       id="guide3897"
       position="104.04571,937.42156"
       orientation="1,0" />
    <sodipodi:guide
       id="guide3899"
       position="691.95449,937.42156"
       orientation="1,0" />
    <sodipodi:guide
       id="guide3901"
       position="334.36049,597.00015"
       orientation="0,1" />
    <sodipodi:guide
       id="guide3903"
       position="406.08132,430.32498"
       orientation="0,1" />
    <sodipodi:guide
       id="guide3905"
       position="282.84271,772.7667"
       orientation="1,0" />
    <sodipodi:guide
       id="guide3907"
       position="510.12704,838.42661"
       orientation="1,0" />
    <sodipodi:guide
       orientation="0,1"
       position="-124.24876,1155.6145"
       id="guide5019" />
    <sodipodi:guide
       orientation="0,1"
       position="-97.984797,969.74645"
       id="guide5021" />
  </sodipodi:namedview>
  <defs
     id="defs4">
    <linearGradient
       id="linearGradient3879"
       inkscape:collect="always">
      <stop
         id="stop3881"
         offset="0"
         style="stop-color:#ffffff;stop-opacity:1;" />
      <stop
         id="stop3883"
         offset="1"
         style="stop-color:#000000;stop-opacity:1" />
    </linearGradient>
    <linearGradient
       id="linearGradient3787"
       inkscape:collect="always">
      <stop
         id="stop3789"
         offset="0"
         style="stop-color:#ffffff;stop-opacity:1" />
      <stop
         id="stop3791"
         offset="1"
         style="stop-color:#000000;stop-opacity:1" />
    </linearGradient>
    <linearGradient
       y2="254.41727"
       x2="359.61432"
       y1="223.02693"
       x1="359.61432"
       gradientUnits="userSpaceOnUse"
       id="linearGradient3840"
       xlink:href="#linearGradient3787"
       inkscape:collect="always" />
    <mask
       id="mask3836"
       maskUnits="userSpaceOnUse">
      <rect
         transform="scale(1,-1)"
         style="fill:url(#linearGradient3840);fill-opacity:1;stroke:none"
         id="rect3838"
         width="642.45703"
         height="133.34013"
         x="74.751289"
         y="233.12846" />
    </mask>
    <linearGradient
       gradientUnits="userSpaceOnUse"
       y2="598.00354"
       x2="403.05087"
       y1="560.41016"
       x1="403.05087"
       id="linearGradient3885"
       xlink:href="#linearGradient3879"
       inkscape:collect="always" />
    <linearGradient
       y2="598.00354"
       x2="403.05087"
       y1="560.41016"
       x1="403.05087"
       gradientUnits="userSpaceOnUse"
       id="linearGradient3891"
       xlink:href="#linearGradient3879"
       inkscape:collect="always" />
    <mask
       id="mask3887"
       maskUnits="userSpaceOnUse">
      <rect
         transform="scale(1,-1)"
         y="575.57019"
         x="243.44676"
         height="137.38075"
         width="315.1676"
         id="rect3889"
         style="fill:url(#linearGradient3891);fill-opacity:1;stroke:none" />
    </mask>
  </defs>
  <metadata
     id="metadata7">
    <rdf:RDF>
      <cc:Work
         rdf:about="">
        <dc:format>image/svg+xml</dc:format>
        <dc:type
           rdf:resource="http://purl.org/dc/dcmitype/StillImage" />
        <dc:title></dc:title>
      </cc:Work>
    </rdf:RDF>
  </metadata>
  <g
     id="layer1"
     inkscape:groupmode="layer"
     inkscape:label="Layer 1">
    <rect
       y="114.94062"
       x="104.04571"
       height="164.65486"
       width="587.90875"
       id="rect3909"
       style="fill:#000000;fill-opacity:0;stroke:none" />
    <text
       sodipodi:linespacing="125%"
       id="text2985"
       y="229.50504"
       x="111.42857"
       style="font-size:40px;font-style:normal;font-weight:500;line-height:125%;letter-spacing:0px;word-spacing:0px;fill:#000000;fill-opacity:1;stroke:none;font-family:Ubuntu;-inkscape-font-specification:Ubuntu Medium;font-stretch:normal;font-variant:normal"
       xml:space="preserve"><tspan
         y="229.50504"
         x="111.42857"
         id="tspan2987"
         sodipodi:role="line"><tspan
           id="tspan2989"
           style="fill:#ff9c31;font-size:144px;font-weight:500;-inkscape-font-specification:Ubuntu Medium;fill-opacity:1">Data</tspan><tspan
           id="tspan2999"
           style="font-size:144px;fill:#36baff;font-weight:500;-inkscape-font-specification:Ubuntu Medium;fill-opacity:1">Net</tspan></tspan></text>
    <text
       mask="url(#mask3836)"
       transform="scale(1,-1)"
       xml:space="preserve"
       style="font-size:40px;font-style:normal;font-variant:normal;font-weight:500;font-stretch:normal;line-height:125%;letter-spacing:0px;word-spacing:0px;fill:#000000;fill-opacity:1;stroke:none;font-family:Ubuntu;-inkscape-font-specification:Ubuntu Medium;"
       x="111.42857"
       y="-235.6329"
       id="text3769"
       sodipodi:linespacing="125%"><tspan
         sodipodi:role="line"
         id="tspan3771"
         x="111.42857"
         y="-235.6329"><tspan
           style="font-size:144px;font-weight:500;fill:#ff9c31;fill-opacity:1;-inkscape-font-specification:Ubuntu Medium"
           id="tspan3773">Data</tspan><tspan
           style="font-size:144px;font-weight:500;fill:#36baff;fill-opacity:1;-inkscape-font-specification:Ubuntu Medium"
           id="tspan3775">Net</tspan></tspan></text>
    <text
       xml:space="preserve"
       style="font-size:40px;font-style:normal;font-variant:normal;font-weight:500;font-stretch:normal;line-height:125%;letter-spacing:0px;word-spacing:0px;fill:#000000;fill-opacity:1;stroke:none;font-family:Ubuntu;-inkscape-font-specification:Ubuntu Medium"
       x="292.24588"
       y="569.92639"
       id="text3861"
       sodipodi:linespacing="125%"><tspan
         sodipodi:role="line"
         id="tspan3863"
         x="292.24588"
         y="569.92639"><tspan
           style="font-size:144px;font-weight:500;fill:#ff9c31;fill-opacity:1;-inkscape-font-specification:Ubuntu Medium"
           id="tspan3865">D</tspan><tspan
           style="font-size:144px;font-weight:500;fill:#36baff;fill-opacity:1;-inkscape-font-specification:Ubuntu Medium"
           id="tspan3867">N</tspan></tspan></text>
    <text
       mask="url(#mask3887)"
       transform="scale(1,-1)"
       sodipodi:linespacing="125%"
       id="text3869"
       y="-576.34442"
       x="292.24588"
       style="font-size:40px;font-style:normal;font-variant:normal;font-weight:500;font-stretch:normal;line-height:125%;letter-spacing:0px;word-spacing:0px;fill:#000000;fill-opacity:1;stroke:none;font-family:Ubuntu;-inkscape-font-specification:Ubuntu Medium"
       xml:space="preserve"><tspan
         y="-576.34442"
         x="292.24588"
         id="tspan3871"
         sodipodi:role="line"><tspan
           id="tspan3873"
           style="font-size:144px;font-weight:500;fill:#ff9c31;fill-opacity:1;-inkscape-font-specification:Ubuntu Medium">D</tspan><tspan
           id="tspan3875"
           style="font-size:144px;font-weight:500;fill:#36baff;fill-opacity:1;-inkscape-font-specification:Ubuntu Medium">N</tspan></tspan></text>
    <rect
       inkscape:export-ydpi="49.740414"
       inkscape:export-xdpi="49.740414"
       inkscape:export-filename="/home/daniel/files/work/workspace/datanet/web/misc/datanet-logo-325x91.png"
       y="114.94062"
       x="104.04571"
       height="164.65486"
       width="587.90875"
       id="rect3911"
       style="fill:#000000;fill-opacity:0;stroke:none" />
    <rect
       inkscape:export-ydpi="12.67"
       inkscape:export-xdpi="12.67"
       inkscape:export-filename="/home/daniel/files/work/workspace/datanet/web/misc/datanet-icon.png"
       y="455.36203"
       x="282.84271"
       height="166.67517"
       width="227.28433"
       id="rect3913"
       style="fill:#000000;fill-opacity:0;stroke:none" />
    <rect
       inkscape:export-ydpi="21.863918"
       inkscape:export-xdpi="21.863918"
       inkscape:export-filename="/home/daniel/files/work/workspace/datanet/web/misc/datanet-logo-143x40.png"
       y="114.94062"
       x="104.04571"
       height="164.65486"
       width="587.90875"
       id="rect3030"
       style="fill:#000000;fill-opacity:0;stroke:none" />
    <g
       id="text4773"
       style="font-size:36px;font-style:normal;font-variant:normal;font-weight:normal;font-stretch:normal;text-align:center;line-height:125%;letter-spacing:0px;word-spacing:0px;text-anchor:middle;fill:#424242;fill-opacity:1;stroke:none;font-family:Ubuntu;-inkscape-font-specification:Ubuntu">
      <path
         id="path4785"
         style=""
         d="M166.110240976 58.7262689357C164.28285548 60.6124547219 162.36326797 62.257618517 160.345453204 63.6617655602C158.340004565 65.0449664325 156.280127548 66.1976293145 154.164549014 67.1197568257C152.060079608 68.0209320535 149.926088889 68.702050672 147.764599581 69.1631153008C145.617576084 69.6032232801 143.520025655 69.8232772697 141.476703508 69.8232772697C140.46704701 69.8232772697 139.392681802 69.7813622241 138.254262593 69.6975321328C137.118769183 69.6346595643 136.169136553 69.498435666 135.406199129 69.2888604378C135.406199129 69.2888604378 157.713253071 48.1636774336 157.713253071 48.1636774336C158.828589027 47.9541240361 159.963428501 47.8179001378 161.118605613 47.7550057386C162.316590353 47.6711931119 163.372505295 47.6292824324 164.287018418 47.6292606017C166.13772351 47.6292824324 167.602939375 47.8598151835 168.68770584 48.3208588548C169.799963947 48.7609877915 170.460605482 49.44210641 170.672044307 50.3642173299C170.913549179 51.265409149 170.66331108 52.418072031 169.920310149 53.8222085954C169.20559347 55.2054190733 167.937548057 56.8401049802 166.110240976 58.7262689357M144.508184722 67.15119311C147.787925935 67.1511957296 150.970800562 66.4176833041 154.04153424 64.9506532137C157.112557371 63.462675206 159.950619394 61.3878821931 162.57121983 58.7262689357C165.191761454 56.0646766358 166.461841519 54.0003632576 166.396744117 52.5333209419C166.372942813 51.0453551594 164.847621433 50.3013639725 161.805288062 50.3013447614C160.901366184 50.3013639725 160.185055548 50.3118409874 159.656277111 50.3327810456C159.149397198 50.3537560331 158.785799209 50.3747135559 158.565524951 50.3956536141C158.565524951 50.3956536141 141.219656397 67.0568842573 141.219656397 67.0568842573C141.411658029 67.0778417801 141.758154925 67.0987993029 142.259188811 67.1197568257C142.784062371 67.1407143485 143.533752279 67.15119311 144.508184722 67.15119311" />
      <path
         id="path4787"
         style=""
         d="M168.302634511 67.5284285207C169.088185219 67.5284302672 169.78813324 67.5179497593 170.402393521 67.4969922365C171.059425129 67.4550771909 171.628225955 67.3922063689 172.108749404 67.3083745311C172.108749404 67.3083745311 176.530015845 62.4357504751 176.530015845 62.4357504751C176.392337837 62.3309698468 176.084603537 62.2471397556 175.606873946 62.1842602012C175.171827974 62.1004388423 174.582512113 62.0585229234 173.8386416 62.0585150643C173.350448549 62.0585229234 172.798319153 62.0899600808 172.182024818 62.152823917C171.588659022 62.2157052178 170.961538431 62.3519273697 170.300237788 62.561495612C169.681005979 62.7501203033 169.05244789 63.0225672267 168.414400629 63.3788390021C167.795104546 63.7141654798 167.218875821 64.1647513473 166.686379556 64.7305992241C165.700262945 65.7784788581 165.389202775 66.5119912836 165.755250582 66.9311391203C166.143583266 67.3293346736 166.993352583 67.5284302672 168.302634511 67.5284285207M181.553826102 52.8791200685C182.80312452 52.8791366598 183.708071157 53.036318081 184.270495151 53.350664332C184.87668073 53.6440853696 185.182942542 54.0737145874 185.189521196 54.6395519855C185.240072602 55.1844615505 185.031836901 55.8446235194 184.563998917 56.6200378921C184.116436723 57.3745209389 183.481313088 58.2128209785 182.657470378 59.1349406307C182.657470378 59.1349406307 173.529449757 69.3517330062 173.529449757 69.3517330062C173.204047386 69.3936480519 172.739768021 69.4565206203 172.136406267 69.5403507116C171.575545007 69.6032232801 170.942354698 69.6660958485 170.236777579 69.728968417C169.53083382 69.7918409855 168.774001532 69.8442347925 167.966335281 69.8861498382C167.163182027 69.9490224066 166.388604814 69.9804586909 165.642902121 69.9804586909C164.58447117 69.9804586909 163.698237604 69.8861498382 162.985270154 69.6975321328C162.273727674 69.5089144274 161.782465648 69.2155091079 161.512061767 68.8173161743C161.263751067 68.3981665911 161.280518919 67.8532718709 161.562175259 67.1826293942C161.845881449 66.5119912836 162.439044078 65.7051275282 163.340125145 64.7620355083C164.201149136 63.8608681396 165.14052151 63.0854397952 166.1565509 62.4357504751C167.193530513 61.7860751267 168.247765877 61.2621379294 169.319220907 60.8639362635C170.388220283 60.4657520622 171.471622735 60.1723476159 172.5701046 59.983720305C173.667027998 59.7951122051 174.721034024 59.7008033524 175.733306695 59.7007937469C176.055369145 59.7008033524 176.369693613 59.721760002 176.676373933 59.7636663154C177.002343356 59.7846325705 177.286212119 59.8265476161 177.528057215 59.8894114523C177.812173719 59.9313352302 178.050360424 59.9732502759 178.242591627 60.0151565892C178.434873331 60.0570803672 178.567631249 60.0885166514 178.640814017 60.1094654419C178.640814017 60.1094654419 179.382445807 59.2921220519 179.382445807 59.2921220519C179.819799345 58.8101095057 180.190505834 58.3385661155 180.494892049 57.8774892614C180.818761021 57.3954784617 180.995071256 56.9763280053 181.024162932 56.6200378921C181.073276162 56.2428155798 180.933714774 55.9494111335 180.605468359 55.7398219336C180.319994341 55.5093031543 179.771467134 55.3940367787 178.959110175 55.3940228071C177.921057044 55.3940367787 176.938608372 55.4673916015 176.010987819 55.6140767967C175.124617339 55.7398359053 174.419718497 55.8760598036 173.896564199 56.0227484917C173.896564199 56.0227484917 175.815913797 53.6021546058 175.815913797 53.6021546058C176.377292754 53.4345101414 177.196382673 53.2773295934 178.272704467 53.1306103423C179.367305269 52.9629667511 180.460653106 52.8791366598 181.553826102 52.8791200685" />
      <path
         id="path4789"
         style=""
         d="M195.944130354 53.2877917635C195.944130354 53.2877917635 202.548868739 53.2877917635 202.548868739 53.2877917635C202.548868739 53.2877917635 200.522418819 55.7398219336 200.522418819 55.7398219336C200.522418819 55.7398219336 193.843707106 55.7398219336 193.843707106 55.7398219336C193.843707106 55.7398219336 187.380866341 63.2845301494 187.380866341 63.2845301494C186.680710997 64.1018787788 186.167844504 64.7829973973 185.84273596 65.3278886245C185.53619864 65.8518301879 185.390882658 66.2709806444 185.406884341 66.5853399938C185.441480943 66.878747933 185.619384359 67.0883231612 185.94040204 67.2140656784C186.261857619 67.339813435 186.708270463 67.4026851303 187.279291736 67.4026833838C188.27854766 67.4026851303 189.154253697 67.3083771508 189.905689889 67.1197568257C190.697256616 66.9101842172 191.245954426 66.7634815574 191.552489352 66.6796488465C191.552489352 66.6796488465 190.199826348 69.1002427324 190.199826348 69.1002427324C189.743299995 69.2469453921 189.008405787 69.4250843361 187.994334978 69.6346595643C186.961258391 69.8651923154 185.902864194 69.9804586909 184.820388016 69.9804586909C183.545449802 69.9804586909 182.603222278 69.8442347925 181.995165703 69.5717869959C181.431056937 69.2783816763 181.142228315 68.8487533317 181.128974151 68.2828993423C181.118144022 67.7170479726 181.361574634 67.0254505927 181.858575043 66.208104583C182.398900299 65.3698080363 183.144098606 64.4057628597 184.093145243 63.3159664336C184.093145243 63.3159664336 196.795708397 48.7295305498 196.795708397 48.7295305498C196.795708397 48.7295305498 200.279619368 48.2265500021 200.279619368 48.2265500021C200.279619368 48.2265500021 195.944130354 53.2877917635 195.944130354 53.2877917635" />
      <path
         id="path4791"
         style=""
         d="M201.290118519 67.5284285207C202.075669474 67.5284302672 202.774124865 67.5179497593 203.385430134 67.4969922365C204.036521968 67.4550771909 204.596428256 67.3922063689 205.065101653 67.3083745311C205.065101653 67.3083745311 208.79702201 62.4357504751 208.79702201 62.4357504751C208.644510647 62.3309698468 208.324916632 62.2471397556 207.838300959 62.1842602012C207.391386817 62.1004388423 206.796140975 62.0585229234 206.052279037 62.0585150643C205.564087098 62.0585229234 205.016405219 62.0899600808 204.409004436 62.152823917C203.824524972 62.2157052178 203.216676169 62.3519273697 202.58503353 62.561495612C201.992477358 62.7501203033 201.402463216 63.0225672267 200.814828617 63.3788390021C200.242962512 63.7141654798 199.730479627 64.1647513473 199.27804549 64.7305992241C198.440165998 65.7784788581 198.232878202 66.5119912836 198.658234102 66.9311391203C199.102890904 67.3293346736 199.980836838 67.5284302672 201.290118519 67.5284285207M212.468824465 52.8791200685C213.71812523 52.8791366598 214.645299536 53.036318081 215.252204425 53.350664332C215.899891912 53.6440853696 216.266934758 54.0737145874 216.353573628 54.6395519855C216.481205781 55.1844615505 216.366365327 55.8446235194 216.008237177 56.6200378921C215.667404683 57.3745209389 215.150878064 58.2128209785 214.457500165 59.1349406307C214.457500165 59.1349406307 206.774882621 69.3517330062 206.774882621 69.3517330062C206.455400112 69.3936480519 206.000015532 69.4565206203 205.408523496 69.5403507116C204.856547018 69.6032232801 204.232251494 69.6660958485 203.535579172 69.728968417C202.838520187 69.7918409855 202.08910022 69.8442347925 201.287373845 69.8861498382C200.493105357 69.9490224066 199.72298556 69.9804586909 198.977282868 69.9804586909C197.918841893 69.9804586909 197.01926615 69.8861498382 196.279624353 69.6975321328C195.541387506 69.5089144274 195.008616481 69.2155091079 194.681888933 68.8173161743C194.374269812 68.3981665911 194.313949647 67.8532718709 194.500737932 67.1826293942C194.689556876 66.5119912836 195.168569881 65.7051275282 195.936238473 64.7620355083C196.669761602 63.8608681396 197.499431621 63.0854397952 198.423557065 62.4357504751C199.368615305 61.7860751267 200.34872758 61.2621379294 201.363857368 60.8639362635C202.376514703 60.4657520622 203.418408279 60.1723476159 204.490214027 59.983720305C205.560444829 59.7951122051 206.601118263 59.7008033524 207.613389575 59.7007937469C207.935453384 59.7008033524 208.252742658 59.721760002 208.565351602 59.7636663154C208.8942776 59.7846325705 209.184076219 59.8265476161 209.434824459 59.8894114523C209.724862462 59.9313352302 209.968979024 59.9732502759 210.167148447 60.0151565892C210.365351645 60.0570803672 210.502556956 60.0885166514 210.57871302 60.1094654419C210.57871302 60.1094654419 211.204712564 59.2921220519 211.204712564 59.2921220519C211.573864661 58.8101095057 211.877869909 58.3385661155 212.117026072 57.8774892614C212.372693909 57.3954784617 212.489705575 56.9763280053 212.468401191 56.6200378921C212.464138107 56.2428155798 212.283067843 55.9494111335 211.925179584 55.7398219336C211.607093319 55.5093031543 211.042259001 55.3940367787 210.229900065 55.3940228071C209.191839508 55.3940367787 208.21976858 55.4673916015 207.312909468 55.6140767967C206.444321124 55.7398359053 205.758694316 55.8760598036 205.256301971 56.0227484917C205.256301971 56.0227484917 206.833202224 53.6021546058 206.833202224 53.6021546058C207.37085465 53.4345101414 208.167707729 53.2773295934 209.223281983 53.1306103423C210.294156398 52.9629667511 211.37564452 52.8791366598 212.468824465 52.8791200685" />
      <path
         id="path4793"
         style=""
         d="M231.400101684 53.759336027C232.232523894 53.5916915625 233.294704868 53.4135526186 234.58596399 53.224919195C235.897505242 53.036318081 237.322414407 52.9420092283 238.862222045 52.9419926369C239.977989713 52.9420092283 240.819568715 53.0887118881 241.388486528 53.3821006162C241.972915799 53.654564131 242.348469221 54.063235826 242.515647427 54.6081157012C242.740011801 54.503342932 243.080862062 54.3566402723 243.537877181 54.168007722C243.994257752 53.9794057347 244.521862273 53.8012667908 245.120559027 53.63359089C245.731622372 53.4449889028 246.378049412 53.2878083549 247.059957168 53.1620466266C247.754122693 53.0153605582 248.44681091 52.9420092283 249.138628228 52.9419926369C250.477544968 52.9420092283 251.457181919 53.1306269337 252.079762027 53.5078457531C252.717678509 53.8641393592 253.074441938 54.3775977951 253.150134259 55.0482236805C253.251228106 55.7188783825 253.111572084 56.5152633765 252.729893977 57.4373812822C252.372331436 58.3595236383 251.875427181 59.3654838605 251.238050343 60.4552645685C251.238050343 60.4552645685 245.869082718 69.6346595643 245.869082718 69.6346595643C245.869082718 69.6346595643 242.518300313 69.6346595643 242.518300313 69.6346595643C242.518300313 69.6346595643 247.641307686 61.0839902531 247.641307686 61.0839902531C248.218867089 60.1199538089 248.657462666 59.2921325306 248.957539113 58.6005237988C249.281131373 57.9089368976 249.433585751 57.3326058933 249.415483462 56.871528166C249.421202833 56.4104757624 249.238839956 56.0751553972 248.868253559 55.8655670705C248.533918895 55.6350482912 247.983294124 55.5197819157 247.215637964 55.519767944C246.154400879 55.5197819157 245.188694488 55.656005814 244.317225604 55.928439639C243.479853128 56.1799430113 242.869622249 56.4104757624 242.487335458 56.6200378921C242.32362551 57.1649457107 242.082065768 57.7622351111 241.762386773 58.4119060934C241.443205031 59.0615997796 241.058663416 59.7427183981 240.608419826 60.4552645685C240.608419826 60.4552645685 234.807897788 69.6346595643 234.807897788 69.6346595643C234.807897788 69.6346595643 231.457115382 69.6346595643 231.457115382 69.6346595643C231.457115382 69.6346595643 236.982118648 61.0839902531 236.982118648 61.0839902531C237.605010269 60.1199538089 238.082514922 59.2921325306 238.415106236 58.6005237988C238.748370474 57.9089368976 238.916625463 57.3326058933 238.920261121 56.871528166C238.947736176 56.4104757624 238.781198612 56.0751553972 238.420478903 55.8655670705C238.097026421 55.6350482912 237.563127824 55.5197819157 236.818041842 55.519767944C236.501918163 55.5197819157 236.156251919 55.53026417 235.780998805 55.5512042282C235.405635081 55.5721792156 235.034486371 55.6036154999 234.667507831 55.6455130809C234.337078291 55.6664880683 234.022130316 55.6979243526 233.722631886 55.7398219336C233.422988292 55.7817544439 233.220813007 55.8131907281 233.116170264 55.8341307863C233.116170264 55.8341307863 223.746712857 69.6346595643 223.746712857 69.6346595643C223.746712857 69.6346595643 220.395930451 69.6346595643 220.395930451 69.6346595643C220.395930451 69.6346595643 231.400101684 53.759336027 231.400101684 53.759336027" />
      <path
         id="path4795"
         style=""
         d="M258.896150865 67.5284285207C259.681702252 67.5284302672 260.377578302 67.5179497593 260.983695998 67.4969922365C261.624442437 67.4550771909 262.168816188 67.3922063689 262.616768619 67.3083745311C262.616768619 67.3083745311 265.144884141 62.4357504751 265.144884141 62.4357504751C264.966495924 62.3309698468 264.626191285 62.2471397556 264.124031227 62.1842602012C263.656418309 62.1004388423 263.05081694 62.0585229234 262.306943373 62.0585150643C261.818753376 62.0585229234 261.278838196 62.0899600808 260.686968221 62.152823917C260.11802388 62.2157052178 259.543829404 62.3519273697 258.963961591 62.561495612C258.418006042 62.7501203033 257.895301202 63.0225672267 257.395685232 63.3788390021C256.906672877 63.7141654798 256.505509382 64.1647513473 256.192860866 64.7305992241C255.613874842 65.7784788581 255.587794918 66.5119912836 256.116703275 66.9311391203C256.659736173 67.3293346736 257.586869615 67.5284302672 258.896150865 67.5284285207M266.455675819 52.8791200685C267.704980684 52.8791366598 268.670996706 53.036318081 269.355553022 53.350664332C270.075740893 53.6440853696 270.548925689 54.0737145874 270.775348021 54.6395519855C271.037612054 55.1844615505 271.085858346 55.8446235194 270.919299986 56.6200378921C270.7648661 57.3745209389 270.455445475 58.2128209785 269.9898816 59.1349406307C269.9898816 59.1349406307 264.831370971 69.3517330062 264.831370971 69.3517330062C264.522243772 69.3936480519 264.082392157 69.4565206203 263.511610742 69.5403507116C262.975177237 69.6032232801 262.366414682 69.6660958485 261.685265316 69.728968417C261.003749311 69.7918409855 260.267273484 69.8442347925 259.475892403 69.8861498382C258.697166902 69.9490224066 257.934803566 69.9804586909 257.189100874 69.9804586909C256.130659899 69.9804586909 255.207784707 69.8861498382 254.421544014 69.6975321328C253.636718273 69.5089144274 253.031460062 69.2155091079 252.606347074 68.8173161743C252.195185021 68.3981665911 252.000246013 67.8532718709 252.021338967 67.1826293942C252.044483468 66.5119912836 252.324156928 65.7051275282 252.858820332 64.7620355083C253.369715559 63.8608681396 254.007812303 63.0854397952 254.771419196 62.4357504751C255.55598174 61.7860751267 256.406652828 61.2621379294 257.323395357 60.8639362635C258.237689019 60.4657520622 259.20708602 60.1723476159 260.232290498 59.983720305C261.255924776 59.7951122051 262.273298762 59.7008033524 263.2855677 59.7007937469C263.607633882 59.7008033524 263.930100596 59.721760002 264.253062693 59.7636663154C264.587178093 59.7846325705 264.887332025 59.8265476161 265.153601481 59.8894114523C265.454006548 59.9313352302 265.708478422 59.9732502759 265.916991401 60.0151565892C266.125561667 60.0570803672 266.270533463 60.0885166514 266.351855422 60.1094654419C266.351855422 60.1094654419 266.775926413 59.2921220519 266.775926413 59.2921220519C267.026004576 58.8101095057 267.213503251 58.3385661155 267.338748194 57.8774892614C267.47534247 57.3954784617 267.488801013 56.9763280053 267.379464001 56.6200378921C267.282015798 56.2428155798 267.028458564 55.9494111335 266.618780875 55.7398219336C266.243743854 55.5093031543 265.650432432 55.3940367787 264.838070045 55.3940228071C263.80001294 55.3940367787 262.846064668 55.4673916015 261.975444827 55.6140767967C261.137935283 55.7398359053 260.485963241 55.8760598036 260.019801607 56.0227484917C260.019801607 56.0227484917 260.998682683 53.6021546058 260.998682683 53.6021546058C261.494927071 53.4345101414 262.252947944 53.2773295934 263.2722652 53.1306103423C264.301722473 52.9629667511 265.362499974 52.8791366598 266.455675819 52.8791200685" />
      <path
         id="path4797"
         style=""
         d="M277.86094529 53.759336027C278.657866904 53.5916915625 279.693506908 53.4135526186 280.967155799 53.224919195C282.238729767 53.036318081 283.643653532 52.9420092283 285.183457654 52.9419926369C286.567017946 52.9420092283 287.633634199 53.1306269337 288.385702629 53.5078457531C289.149884125 53.8641393592 289.659254745 54.3775977951 289.914041213 55.0482236805C290.203495542 55.6979208596 290.269151145 56.4838270922 290.109931903 57.4059449979C289.952547316 58.3280873541 289.642936173 59.3445263377 289.179685489 60.4552645685C289.179685489 60.4552645685 285.351117611 69.6346595643 285.351117611 69.6346595643C285.351117611 69.6346595643 282.000335205 69.6346595643 282.000335205 69.6346595643C282.000335205 69.6346595643 285.688449665 61.0839902531 285.688449665 61.0839902531C286.122322137 60.0780387632 286.412612323 59.2187812008 286.56002759 58.5062149461C286.731243931 57.7936705221 286.741902111 57.2173395178 286.5923594 56.7772193133C286.444115757 56.3371244325 286.128931615 56.0227624634 285.64651928 55.8341307863C285.174340373 55.6245695298 284.520949705 55.5197819157 283.685545046 55.519767944C283.3468454 55.5197819157 282.992109426 55.53026417 282.621290603 55.5512042282C282.250368568 55.5721792156 281.885876845 55.6036154999 281.527770587 55.6455130809C281.201782736 55.6664880683 280.893491747 55.6979243526 280.6028656 55.7398219336C280.33470736 55.7817544439 280.13919227 55.8131907281 280.016374936 55.8341307863C280.016374936 55.8341307863 273.569334313 69.6346595643 273.569334313 69.6346595643C273.569334313 69.6346595643 270.218551907 69.6346595643 270.218551907 69.6346595643C270.218551907 69.6346595643 277.86094529 53.759336027 277.86094529 53.759336027" />
      <path
         id="path4799"
         style=""
         d="M298.020829897 67.5284285207C298.806381576 67.5284302672 299.500499062 67.5179497593 300.103100215 67.4969922365C300.736813568 67.4550771909 301.270637982 67.3922063689 301.704523948 67.3083745311C301.704523948 67.3083745311 303.415043188 62.4357504751 303.415043188 62.4357504751C303.219073428 62.3309698468 302.864702617 62.2471397556 302.351991756 62.1842602012C301.870314131 62.1004388423 301.257679529 62.0585229234 300.513804644 62.0585150643C300.025615965 62.0585229234 299.490975747 62.0899600808 298.909653936 62.152823917C298.351270382 62.2157052178 297.79993315 62.3519273697 297.255219898 62.561495612C296.740924124 62.7501203033 296.26393421 63.0225672267 295.824088721 63.3788390021C295.391342082 63.7141654798 295.065784118 64.1647513473 294.848081388 64.7305992241C294.444923107 65.7784788581 294.541931922 66.5119912836 295.141160827 66.9311391203C295.751018395 67.3293346736 296.71154894 67.5284302672 298.020829897 67.5284285207M303.122291192 52.8791200685C304.37159884 52.8791366598 305.363988936 53.036318081 306.101290615 53.350664332C306.870712728 53.6440853696 307.415986659 54.0737145874 307.737353018 54.6395519855C308.091049517 55.1844615505 308.25007634 55.8446235194 308.213618311 56.6200378921C308.185791516 57.3745209389 308.017032505 58.2128209785 307.706185101 59.1349406307C307.706185101 59.1349406307 304.261989256 69.3517330062 304.261989256 69.3517330062C303.959905142 69.3936480519 303.530603159 69.4565206203 302.973877916 69.5403507116C302.44799404 69.6032232801 301.849781114 69.6660958485 301.179181378 69.728968417C300.508215002 69.7918409855 299.780530534 69.8442347925 298.996182539 69.8861498382C298.228006667 69.9490224066 297.470918146 69.9804586909 296.725215453 69.9804586909C295.666784502 69.9804586909 294.728084862 69.8861498382 293.910185261 69.6975321328C293.093710632 69.5089144274 292.439220818 69.2155091079 291.94729351 68.8173161743C291.46580074 68.3981665911 291.179431756 67.8532718709 291.087995037 67.1826293942C290.998610596 66.5119912836 291.142897293 65.7051275282 291.519315668 64.7620355083C291.879000566 63.8608681396 292.386985214 63.0854397952 293.041578243 62.4357504751C293.717129269 61.7860751267 294.479886925 61.2621379294 295.329813669 60.8639362635C296.177294476 60.4657520622 297.097469625 60.1723476159 298.091013997 59.983720305C299.083010589 59.7951122051 300.08455054 59.7008033524 301.096817867 59.7007937469C301.418885661 59.7008033524 301.744868771 59.721760002 302.074862489 59.7636663154C302.412495897 59.7846325705 302.719682916 59.8265476161 302.996500537 59.8894114523C303.303940154 59.9313352302 303.565445115 59.9732502759 303.780989715 60.0151565892C303.996594533 60.0570803672 304.146841143 60.0885166514 304.23167818 60.1094654419C304.23167818 60.1094654419 304.518603988 59.2921220519 304.518603988 59.2921220519C304.687803418 58.8101095057 304.796180018 58.3385661155 304.844059107 57.8774892614C304.899774942 57.3954784617 304.842902622 56.9763280053 304.673782325 56.6200378921C304.513038543 56.2428155798 304.210249852 55.9494111335 303.765404387 55.7398219336C303.351687736 55.5093031543 302.739035327 55.3940367787 301.926670595 55.3940228071C300.888625237 55.3940367787 299.946985456 55.4673916015 299.100969081 55.6140767967C298.28456114 55.7398359053 297.655446628 55.8760598036 297.213898452 56.0227484917C297.213898452 56.0227484917 297.786618794 53.6021546058 297.786618794 53.6021546058C298.254733474 53.4345101414 298.986380421 53.2773295934 299.981079091 53.1306103423C300.982416101 52.9629667511 302.029127426 52.8791366598 303.122291192 52.8791200685" />
      <path
         id="path4801"
         style=""
         d="M321.873437578 67.9999727842C321.542775783 68.1676347133 320.923004678 68.3876878297 320.012971429 68.6601347531C319.130668761 68.9116259002 318.137811568 69.0373710371 317.035709308 69.0373701639C315.909627622 69.0373710371 314.889425055 68.880189616 313.977123517 68.5658259004C313.091375896 68.2514648046 312.378586712 67.7694417797 311.839836586 67.1197568257C311.311713942 66.4491195884 310.990676867 65.6212983101 310.876257636 64.6362903714C310.765455295 63.6512929114 310.928041051 62.4776725066 311.361300607 61.1154265373C311.741230907 59.920857342 312.282630867 58.8310670286 312.982936988 57.8460529772C313.686391166 56.8401049802 314.510285043 55.9808474177 315.45374638 55.2682776701C316.421406663 54.5347792163 317.490563926 53.9689269733 318.66208766 53.5707183216C319.835858242 53.1515844565 321.07955712 52.9420092283 322.396200829 52.9419926369C323.846711221 52.9420092283 325.079567748 53.0467968424 326.096310644 53.2563554793C327.142829613 53.4449889028 328.01481828 53.6231278468 328.711708429 53.7907723112C328.711708429 53.7907723112 325.071003284 68.377208195 325.071003284 68.377208195C324.443275813 70.8921091871 323.233819509 72.7154119262 321.431888446 73.8471216515C319.615602405 74.9788226444 317.150822911 75.5446748874 314.048294217 75.544681C312.841743475 75.5446748874 311.721710606 75.4608421764 310.689322881 75.2931907261C309.683015901 75.1255253042 308.82303403 74.9264288374 308.109402884 74.6959013257C308.109402884 74.6959013257 309.5270083 72.1495623029 309.5270083 72.1495623029C310.135719103 72.3800924343 310.901267506 72.5791889011 311.823692049 72.7468517033C312.765620508 72.9354659158 313.773245731 73.0297747685 314.84538351 73.0297782614C316.867798824 73.0297747685 318.412021083 72.6839756419 319.474237544 71.9923808817C320.555541569 71.3007808822 321.293180716 70.2005118073 321.691074216 68.6915710373C321.691074216 68.6915710373 321.873437578 67.9999727842 321.873437578 67.9999727842M325.039164303 55.8655670705C324.744788324 55.7817544439 324.334881375 55.7083996211 323.809492097 55.6455130809C323.312669498 55.5617004542 322.612835267 55.5197819157 321.70969142 55.519767944C320.016258439 55.5197819157 318.556297663 56.0332403516 317.323360965 57.0601458714C316.104642196 58.0870758416 315.234799715 59.4493139518 314.720123385 61.1468628216C314.434172936 62.0899592076 314.317863361 62.896822963 314.372323664 63.5674567075C314.451736055 64.2381026771 314.649614628 64.7934761587 314.966006788 65.2335797718C315.307699932 65.673691244 315.744058957 65.9985328477 316.274538283 66.208104583C316.829757176 66.4176833041 317.427769444 66.522470045 318.067739884 66.5224674253C318.944711254 66.522470045 319.779351154 66.4176833041 320.57066535 66.208104583C321.366251682 65.9775753249 322.015191617 65.7156062896 322.517770732 65.4221974772C322.517770732 65.4221974772 325.039164303 55.8655670705 325.039164303 55.8655670705" />
      <path
         id="path4803"
         style=""
         d="M331.350283219 61.4926619481C331.682175594 60.046602479 332.199906431 58.7891519829 332.900202719 57.7203078402C333.600831983 56.630529752 334.401973119 55.7293571439 335.303363431 55.0167873963C336.199946201 54.3042464652 337.166028982 53.7698305065 338.202895029 53.4135369004C339.236607675 53.0572756038 340.254257491 52.8791366598 341.258190296 52.8791200685C343.600658504 52.8791366598 345.276026525 53.5707340397 346.296155503 54.9539148278C347.335480205 56.3161669097 347.63634321 58.4014386839 347.187061906 61.20973539C347.16692333 61.335488386 347.140099305 61.5031485686 347.106589873 61.7127159378C347.076392245 61.9013415022 347.036286781 62.0794804462 346.986189732 62.2471327697C346.986189732 62.2471327697 334.562285694 62.2471327697 334.562285694 62.2471327697C334.338509912 63.9446973576 334.616535939 65.2335841379 335.400330159 66.1137957303C336.191471973 66.9940143085 337.62490658 67.4341214145 339.695106891 67.434119668C340.861065767 67.4341214145 341.851651086 67.3502895768 342.666014599 67.1826293942C343.506571943 66.9940143085 344.14235245 66.8158753645 344.573901652 66.6482125622C344.573901652 66.6482125622 344.63052606 69.1002427324 344.63052606 69.1002427324C344.191550299 69.2888604378 343.43810456 69.4879569046 342.369299891 69.6975321328C341.322672906 69.907107361 340.149112233 70.0118941019 338.849965349 70.0118949751C337.213980332 70.0118941019 335.836940468 69.8023197469 334.722055639 69.3831692905C333.639834054 68.9430621844 332.799268917 68.345772784 332.200725057 67.5913010892C331.607110052 66.8368328873 331.238413328 65.9461390406 331.093454437 64.9192169295C330.980075962 63.871346901 331.0664877 62.7291627804 331.350283219 61.4926619481M344.048158642 59.8894114523C344.301898591 58.5690988665 344.126010044 57.4897873144 343.524960585 56.6514741763C342.955980398 55.7922297123 342.030559515 55.3626004945 340.744487345 55.3625865228C340.022463019 55.3626004945 339.35223726 55.4988243928 338.732767155 55.7712582178C338.138801182 56.0227624634 337.605587875 56.3580819553 337.132959933 56.7772193133C336.658852867 57.1963819949 336.249780709 57.6784050198 335.906000321 58.223288388C335.58399404 58.7681944601 335.327653806 59.3235688149 335.137470745 59.8894114523C335.137470745 59.8894114523 344.048158642 59.8894114523 344.048158642 59.8894114523" />
      <path
         id="path4805"
         style=""
         d="M352.867648529 53.759336027C353.607257738 53.5916915625 354.570815653 53.4135526186 355.757641658 53.224919195C356.964767679 53.036318081 358.337464637 52.9420092283 359.877263089 52.9419926369C360.993030645 52.9420092283 361.915828631 53.0887118881 362.647184542 53.3821006162C363.382457782 53.654564131 363.984264104 54.063235826 364.453104142 54.6081157012C364.619463171 54.503342932 364.879094441 54.3566402723 365.231676927 54.168007722C365.583641784 53.9794057347 366.012623246 53.8012667908 366.518489595 53.63359089C367.025137227 53.4449889028 367.584544404 53.2878083549 368.196826697 53.1620466266C368.809782418 53.0153605582 369.461851841 52.9420092283 370.153669273 52.9419926369C371.492585899 52.9420092283 372.576656565 53.1306269337 373.408076318 53.5078457531C374.243247621 53.8641393592 374.88427703 54.3775977951 375.331247944 55.0482236805C375.803636337 55.7188783825 376.104882918 56.5152633765 376.233716924 57.4373812822C376.386680033 58.3595236383 376.446705511 59.3654838605 376.412663939 60.4552645685C376.412663939 60.4552645685 376.125684536 69.6346595643 376.125684536 69.6346595643C376.125684536 69.6346595643 372.774902131 69.6346595643 372.774902131 69.6346595643C372.774902131 69.6346595643 373.164002667 61.0839902531 373.164002667 61.0839902531C373.207842597 60.1199538089 373.188131501 59.2921325306 373.105312623 58.6005237988C373.046021644 57.9089368976 372.879401902 57.3326058933 372.606033163 56.871528166C372.356500103 56.4104757624 371.988493821 56.0751553972 371.501873044 55.8655670705C371.039906861 55.6350482912 370.425467174 55.5197819157 369.657812687 55.519767944C368.596583338 55.5197819157 367.706294579 55.656005814 366.985653228 55.928439639C366.287520557 56.1799430113 365.80491952 56.4104757624 365.538652605 56.6200378921C365.676619959 57.1649457107 365.765737533 57.7622351111 365.805735868 58.4119060934C365.846244025 59.0615997796 365.838790093 59.7427183981 365.783033422 60.4552645685C365.783033422 60.4552645685 365.064499606 69.6346595643 365.064499606 69.6346595643C365.064499606 69.6346595643 361.7137172 69.6346595643 361.7137172 69.6346595643C361.7137172 69.6346595643 362.504813629 61.0839902531 362.504813629 61.0839902531C362.593985778 60.1199538089 362.613183757 59.2921325306 362.562879746 58.6005237988C362.513260745 57.9089368976 362.362441614 57.3326058933 362.110810823 56.871528166C361.883033447 56.4104757624 361.530843045 56.0751553972 361.054098388 55.8655670705C360.603014387 55.6350482912 360.005300874 55.5197819157 359.260216565 55.519767944C358.944100622 55.5197819157 358.604237668 55.53026417 358.240577597 55.5512042282C357.876826255 55.5721792156 357.523081615 55.6036154999 357.179298831 55.6455130809C356.860481673 55.6664880683 356.562937767 55.6979243526 356.286635094 55.7398219336C356.010206595 55.7817544439 355.825435379 55.8131907281 355.73238568 55.8341307863C355.73238568 55.8341307863 354.003314675 69.6346595643 354.003314675 69.6346595643C354.003314675 69.6346595643 350.652532269 69.6346595643 350.652532269 69.6346595643C350.652532269 69.6346595643 352.867648529 53.759336027 352.867648529 53.759336027" />
      <path
         id="path4807"
         style=""
         d="M380.739525696 61.4926619481C380.75698099 60.046602479 381.001286654 58.7891519829 381.469169103 57.7203078402C381.932823112 56.630529752 382.538009632 55.7293571439 383.284465283 55.0167873963C384.026100885 54.3042464652 384.875987432 53.7698305065 385.835379542 53.4135369004C386.791625276 53.0572756038 387.770539831 52.8791366598 388.774469029 52.8791200685C391.116931549 52.8791366598 392.942683301 53.5707340397 394.263586087 54.9539148278C395.599124448 56.3161669097 396.353417469 58.4014386839 396.514783676 61.20973539C396.521989345 61.335488386 396.531622035 61.5031485686 396.543681789 61.7127159378C396.554499674 61.9013415022 396.55312947 62.0794804462 396.539487427 62.2471327697C396.539487427 62.2471327697 384.115583389 62.2471327697 384.115583389 62.2471327697C384.260932989 63.9446973576 384.819219824 65.2335841379 385.794410849 66.1137957303C386.776950988 66.9940143085 388.306084282 67.4341214145 390.376284213 67.434119668C391.542233554 67.4341214145 392.514590139 67.3502895768 393.292506849 67.1826293942C394.092050958 66.9940143085 394.689096205 66.8158753645 395.084188121 66.6482125622C395.084188121 66.6482125622 395.673991989 69.1002427324 395.673991989 69.1002427324C395.276030033 69.2888604378 394.565876643 69.4879569046 393.542642869 69.6975321328C392.541576758 69.907107361 391.390811362 70.0118941019 390.091664668 70.0118949751C388.455679461 70.0118941019 387.033068893 69.8023197469 385.827042275 69.3831692905C384.649122003 68.9430621844 383.678669865 68.345772784 382.916080549 67.5913010892C382.158401007 66.8368328873 381.596038062 65.9461390406 381.227781031 64.9192169295C380.886549415 63.871346901 380.72459997 62.7291627804 380.739525696 61.4926619481M393.08878378 59.8894114523C393.055429565 58.5690988665 392.644841612 57.4897873144 391.86151541 56.6514741763C391.105697596 55.7922297123 390.08685638 55.3626004945 388.800781172 55.3625865228C388.078759884 55.3626004945 387.438155206 55.4988243928 386.877924225 55.7712582178C386.338646364 56.0227624634 385.878346297 56.3580819553 385.496857294 56.7772193133C385.113894675 57.1963819949 384.809635573 57.6784050198 384.584336851 58.223288388C384.380817174 58.7681944601 384.245239808 59.3235688149 384.178095883 59.8894114523C384.178095883 59.8894114523 393.08878378 59.8894114523 393.08878378 59.8894114523" />
      <path
         id="path4809"
         style=""
         d="M400.575315684 53.759336027C401.278480929 53.5916915625 402.214485534 53.4135526186 403.382620018 53.224919195C404.548716271 53.036318081 405.900882586 52.9420092283 407.440677428 52.9419926369C408.824246999 52.9420092283 409.996368856 53.1306269337 410.959411294 53.5078457531C411.922881702 53.8641393592 412.719436219 54.3775977951 413.34930297 55.0482236805C414.002150663 55.6979208596 414.507373716 56.4838270922 414.863897374 57.4059449979C415.222278811 58.3280873541 415.481175002 59.3445263377 415.639174429 60.4552645685C415.639174429 60.4552645685 416.944759674 69.6346595643 416.944759674 69.6346595643C416.944759674 69.6346595643 413.593977268 69.6346595643 413.593977268 69.6346595643C413.593977268 69.6346595643 412.499592928 61.0839902531 412.499592928 61.0839902531C412.370833456 60.0780387632 412.180520287 59.2187812008 411.929388127 58.5062149461C411.702078755 57.7936705221 411.390387602 57.2173395178 410.994670547 56.7772193133C410.600285647 56.3371244325 410.109274818 56.0227624634 409.521348941 55.8341307863C408.931959741 55.6245695298 408.219960019 55.5197819157 407.384547546 55.519767944C407.045855714 55.5197819157 406.696982599 55.53026417 406.33787582 55.5512042282C405.978685363 55.5721792156 405.631776356 55.6036154999 405.297103952 55.6455130809C404.982857094 55.6664880683 404.692148822 55.6979243526 404.424947113 55.7398219336C404.180251682 55.7817544439 404.002319309 55.8131907281 403.891204598 55.8341307863C403.891204598 55.8341307863 405.162976376 69.6346595643 405.162976376 69.6346595643C405.162976376 69.6346595643 401.81219397 69.6346595643 401.81219397 69.6346595643C401.81219397 69.6346595643 400.575315684 53.759336027 400.575315684 53.759336027" />
      <path
         id="path4811"
         style=""
         d="M422.706991831 53.2877917635C422.706991831 53.2877917635 429.311730216 53.2877917635 429.311730216 53.2877917635C429.311730216 53.2877917635 429.825033252 55.7398219336 429.825033252 55.7398219336C429.825033252 55.7398219336 423.146321538 55.7398219336 423.146321538 55.7398219336C423.146321538 55.7398219336 424.498105251 63.2845301494 424.498105251 63.2845301494C424.644539652 64.1018787788 424.837159187 64.7829973973 425.076435667 65.3278886245C425.312584219 65.8518301879 425.601414042 66.2709806444 425.943021461 66.5853399938C426.281522839 66.878747933 426.676499157 67.0883231612 427.127757866 67.2140656784C427.5794599 67.339813435 428.09099371 67.4026851303 428.662013174 67.4026833838C429.661270907 67.4026851303 430.439295042 67.3083771508 430.995362909 67.1197568257C431.569859447 66.9101842172 431.966596339 66.7634815574 432.186309277 66.6796488465C432.186309277 66.6796488465 433.340838293 69.1002427324 433.340838293 69.1002427324C433.03625298 69.2469453921 432.485870731 69.4250843361 431.688882824 69.6346595643C430.89458643 69.8651923154 429.955582328 69.9804586909 428.873106151 69.9804586909C427.598167936 69.9804586909 426.514843026 69.8442347925 425.624591678 69.5717869959C424.756570856 69.2783816763 424.022743707 68.8487533317 423.423401778 68.2828993423C422.826466695 67.7170479726 422.353557664 67.0254505927 422.003980938 66.208104583C421.676019108 65.3698080363 421.42268297 64.4057628597 421.242945089 63.3159664336C421.242945089 63.3159664336 418.837234252 48.7295305498 418.837234252 48.7295305498C418.837234252 48.7295305498 421.800170257 48.2265500021 421.800170257 48.2265500021C421.800170257 48.2265500021 422.706991831 53.2877917635 422.706991831 53.2877917635" />
      <path
         id="path4813"
         style=""
         d="M441.130124515 53.759336027C441.802292622 53.5916915625 442.694187647 53.4135526186 443.805128975 53.224919195C444.936383317 53.036318081 446.271141098 52.9420092283 447.810932876 52.9419926369C448.926716405 52.9420092283 449.908530894 53.0887118881 450.757903821 53.3821006162C451.60278545 53.654564131 452.368994872 54.063235826 453.057032719 54.6081157012C453.181243078 54.503342932 453.381857852 54.3566402723 453.658556012 54.168007722C453.934648838 53.9794057347 454.291967412 53.8012667908 454.730380012 53.63359089C455.161155613 53.4449889028 455.65733118 53.2878083549 456.21902123 53.1620466266C456.772967128 53.0153605582 457.395537601 52.9420092283 458.08733906 52.9419926369C459.426271659 52.9420092283 460.58621138 53.1306269337 461.569381166 53.5078457531C462.54788457 53.8641393592 463.395471369 54.3775977951 464.112226012 55.0482236805C464.854409727 55.7188783825 465.476031228 56.5152633765 465.975820805 57.4373812822C466.49974932 58.3595236383 466.964458999 59.3654838605 467.368821476 60.4552645685C467.368821476 60.4552645685 470.774588615 69.6346595643 470.774588615 69.6346595643C470.774588615 69.6346595643 467.423806209 69.6346595643 467.423806209 69.6346595643C467.423806209 69.6346595643 464.37308805 61.0839902531 464.37308805 61.0839902531C464.029109148 60.1199538089 463.67637674 59.2921325306 463.315333017 58.6005237988C462.977825976 57.9089368976 462.57935606 57.3326058933 462.120501983 56.871528166C461.685493773 56.4104757624 461.18259264 56.0751553972 460.611657311 55.8655670705C460.056965952 55.6350482912 459.396156155 55.5197819157 458.62848664 55.519767944C457.567262911 55.5197819157 456.731775186 55.656005814 456.12073028 55.928439639C455.523774016 56.1799430113 455.133913189 56.4104757624 454.951950287 56.6200378921C455.309126691 57.1649457107 455.638525718 57.7622351111 455.939877908 58.4119060934C456.241749054 59.0615997796 456.508299937 59.7427183981 456.73919096 60.4552645685C456.73919096 60.4552645685 459.713403684 69.6346595643 459.713403684 69.6346595643C459.713403684 69.6346595643 456.362621278 69.6346595643 456.362621278 69.6346595643C456.362621278 69.6346595643 453.713899012 61.0839902531 453.713899012 61.0839902531C453.415252329 60.1199538089 453.101428996 59.2921325306 452.77290014 58.6005237988C452.445065076 57.9089368976 452.062395772 57.3326058933 451.625279642 56.871528166C451.212027116 56.4104757624 450.724951295 56.0751553972 450.163882656 55.8655670705C449.620073478 55.6350482912 448.975989855 55.5197819157 448.230890517 55.519767944C447.914780195 55.5197819157 447.57913411 55.53026417 447.223897942 55.5512042282C446.868584554 55.5721792156 446.527486305 55.6036154999 446.200558353 55.6455130809C445.890179148 55.6664880683 445.605281635 55.6979243526 445.345833792 55.7398219336C445.086274175 55.7817544439 444.914149351 55.8131907281 444.829523555 55.8341307863C444.829523555 55.8341307863 448.652218753 69.6346595643 448.652218753 69.6346595643C448.652218753 69.6346595643 445.301436347 69.6346595643 445.301436347 69.6346595643C445.301436347 69.6346595643 441.130124515 53.759336027 441.130124515 53.759336027" />
      <path
         id="path4815"
         style=""
         d="M481.78827584 67.5284285207C482.573828896 67.5284302672 483.259686456 67.5179497593 483.845770511 67.4969922365C484.446449668 67.4550771909 484.930724165 67.3922063689 485.298540364 67.3083745311C485.298540364 67.3083745311 483.16883435 62.4357504751 483.16883435 62.4357504751C482.890284606 62.3309698468 482.469845403 62.2471397556 481.907577744 62.1842602012C481.359838609 62.1004388423 480.714169123 62.0585229234 479.970288044 62.0585150643C479.48210556 62.0585229234 478.972241676 62.0899600808 478.440464277 62.152823917C477.931629206 62.2157052178 477.487651727 62.3519273697 477.108113647 62.561495612C476.742467544 62.7501203033 476.480199203 63.0225672267 476.321149287 63.3788390021C476.152681031 63.7141654798 476.182239983 64.1647513473 476.410494766 64.7305992241C476.833194131 65.7784788581 477.508290808 66.5119912836 478.437869481 66.9311391203C479.361544063 67.3293346736 480.47899626 67.5284302672 481.78827584 67.5284285207M475.344285728 52.8791200685C476.593606452 52.8791366598 477.709874782 53.036318081 478.694919853 53.350664332C479.695593723 53.6440853696 480.57946816 54.0737145874 481.346783774 54.6395519855C482.12993583 55.1844615505 482.809241813 55.8446235194 483.383914815 56.6200378921C483.950703692 57.3745209389 484.442627872 58.2128209785 484.85853335 59.1349406307C484.85853335 59.1349406307 489.466422714 69.3517330062 489.466422714 69.3517330062C489.197362796 69.3936480519 488.817612105 69.4565206203 488.326965254 69.5403507116C487.850632672 69.6032232801 487.301971039 69.6660958485 486.680922597 69.728968417C486.059507514 69.7918409855 485.373115791 69.8442347925 484.621801991 69.8861498382C483.903177413 69.9490224066 483.170864539 69.9804586909 482.425161846 69.9804586909C481.366720872 69.9804586909 480.353694295 69.8861498382 479.387150833 69.6975321328C478.422022323 69.5089144274 477.536293138 69.2155091079 476.730540971 68.8173161743C475.918706932 68.3981665911 475.202894093 67.8532718709 474.582908865 67.1826293942C473.964979357 66.5119912836 473.473358474 65.7051275282 473.106504693 64.7620355083C472.7559592 63.8608681396 472.652811227 63.0854397952 472.795369405 62.4357504751C472.958896591 61.7860751267 473.308727488 61.2621379294 473.844822491 60.8639362635C474.378485321 60.4657520622 475.067412182 60.1723476159 475.912304709 59.983720305C476.7556454 59.7951122051 477.682868001 59.7008033524 478.695127758 59.7007937469C479.017203122 59.7008033524 479.359702641 59.721760002 479.722723673 59.7636663154C480.076881062 59.7846325705 480.417102275 59.8265476161 480.743464308 59.8894114523C481.083945004 59.9313352302 481.37848416 59.9732502759 481.627056074 60.0151565892C481.875701969 60.0570803672 482.050724226 60.0885166514 482.152071479 60.1094654419C482.152071479 60.1094654419 481.79483047 59.2921220519 481.79483047 59.2921220519C481.584144908 58.8101095057 481.320887494 58.3385661155 481.005381484 57.8774892614C480.681213702 57.3954784617 480.293999426 56.9763280053 479.844078829 56.6200378921C479.386037609 56.2428155798 478.852010237 55.9494111335 478.241982781 55.7398219336C477.646589065 55.5093031543 476.943092618 55.3940367787 476.130716875 55.3940228071C475.092673126 55.3940367787 474.208845936 55.4673916015 473.478444888 55.6140767967C472.761150546 55.7398359053 472.239397169 55.8760598036 471.913457667 56.0227484917C471.913457667 56.0227484917 470.578453206 53.6021546058 470.578453206 53.6021546058C470.914443491 53.4345101414 471.522212892 53.2773295934 472.401278801 53.1306103423C473.270482805 52.9629667511 474.251125742 52.8791366598 475.344285728 52.8791200685" />
      <path
         id="path4817"
         style=""
         d="M500.450947325 56.745783029C499.911152514 56.452390808 499.208023899 56.1694642499 498.342132779 55.8970033548C497.478007552 55.6245695298 496.617674911 55.4883456314 495.75979988 55.4883316598C494.856768786 55.4883456314 494.156519291 55.6455270526 493.657655477 55.9598759232C493.169221022 56.2532943412 492.854394142 56.6724447976 492.712931067 57.2173272925C492.559225266 57.7412775883 492.568921484 58.3700023997 492.742566723 59.1035043465C492.915004857 59.8370272508 493.204034846 60.6229334833 493.610556703 61.4612256639C494.535374887 63.3683663533 495.781307835 64.8458699657 497.355579385 65.8937417407C498.929059232 66.9206629786 500.611664662 67.4341214145 502.396320296 67.434119668C503.300532222 67.4341214145 504.033811237 67.4026833838 504.595949068 67.3398108154C505.170555275 67.2559807241 505.602126384 67.1721532525 505.890812302 67.0883205415C505.890812302 67.0883205415 500.450947325 56.745783029 500.450947325 56.745783029M494.663856925 45.7430835477C494.663856925 45.7430835477 497.402663274 45.240103 497.402663274 45.240103C497.402663274 45.240103 510.326158954 69.1631153008 510.326158954 69.1631153008C509.660318537 69.3517330062 508.777172831 69.5403507116 507.676201965 69.728968417C506.573265413 69.9175861224 505.239194714 70.0118941019 503.675405401 70.0118949751C502.231887439 70.0118941019 500.833500425 69.8127985083 499.483169982 69.4146055747C498.136722591 69.0164135143 496.880382915 68.4505603981 495.715043106 67.7170462261C494.554777356 66.9835355471 493.502545777 66.0928417004 492.557576779 65.0449620664C491.630240819 63.9761336419 490.85772012 62.7815565875 490.23706601 61.4612256639C489.645974501 60.2037839001 489.276182768 59.0511210182 489.12528251 58.0032343983C488.993909076 56.9553704825 489.087309377 56.0541978744 489.40461174 55.2997139544C489.71728718 54.5452579777 490.252476724 53.9584482119 491.010884925 53.5392820373C491.787944174 53.1201481723 492.799813642 52.9105729441 494.049317316 52.9105563527C495.05338114 52.9105729441 495.999427207 53.036318081 496.888764764 53.2877917635C497.802213754 53.5392977555 498.510355449 53.7803092679 499.012441997 54.0108263008C499.012441997 54.0108263008 494.663856925 45.7430835477 494.663856925 45.7430835477" />
      <path
         id="path4819"
         style=""
         d="M510.768414231 61.4926619481C509.958039376 60.046602479 509.482488453 58.7891519829 509.33848638 57.7203078402C509.1782812 56.630529752 509.267570603 55.7293571439 509.606089824 55.0167873963C509.939824264 54.3042464652 510.483772028 53.7698305065 511.239186297 53.4135369004C511.991482022 53.0572756038 512.868416823 52.8791366598 513.872336523 52.8791200685C516.214817837 52.8791366598 518.436490516 53.5707340397 520.549217773 54.9539148278C522.664618251 56.3161669097 524.612663833 58.4014386839 526.381704367 61.20973539C526.460900244 61.335488386 526.566513879 61.5031485686 526.698545315 61.7127159378C526.817346262 61.9013415022 526.917955812 62.0794804462 527.000290215 62.2471327697C527.000290215 62.2471327697 514.576386177 62.2471327697 514.576386177 62.2471327697C515.693555609 63.9446973576 516.989695512 65.2335841379 518.468774177 66.1137957303C519.955215776 66.9940143085 521.736298551 67.4341214145 523.806497482 67.434119668C524.972457738 67.4341214145 525.896822847 67.3502895768 526.5787487 67.1826293942C527.270325642 66.9940143085 527.765391128 66.8158753645 528.064490711 66.6482125622C528.064490711 66.6482125622 530.058015898 69.1002427324 530.058015898 69.1002427324C529.768042498 69.2888604378 529.171866489 69.4879569046 528.268598893 69.6975321328C527.387518983 69.907107361 526.296731158 70.0118941019 524.997584964 70.0118949751C523.361599257 70.0118941019 521.819013008 69.8023197469 520.373034028 69.3831692905C518.943174255 68.9430621844 517.630789975 68.345772784 516.436275954 67.5913010892C515.246693549 66.8368328873 514.174422445 65.9461390406 513.218280127 64.9192169295C512.277171106 63.871346901 511.461351974 62.7291627804 510.768414231 61.4926619481M522.199854531 59.8894114523C521.410656874 58.5690988665 520.382201579 57.4897873144 519.118954163 56.6514741763C517.871242005 55.7922297123 516.606449618 55.3626004945 515.320366412 55.3625865228C514.598353122 55.3626004945 514.035732962 55.4988243928 513.631463018 55.7712582178C513.236174001 56.0227624634 512.967835338 56.3580819553 512.826281756 56.7772193133C512.683287977 57.1963819949 512.654974111 57.6784050198 512.741596962 58.223288388C512.850030901 58.7681944601 513.032390439 59.3235688149 513.289166633 59.8894114523C513.289166633 59.8894114523 522.199854531 59.8894114523 522.199854531 59.8894114523" />
      <path
         id="path4821"
         style=""
         d="M547.682326977 67.5284285207C549.039198519 67.5284302672 549.926728512 67.3712497193 550.343615239 67.0568842573C550.782477534 66.7425240346 550.751793764 66.2395443601 550.252909908 65.5479426141C549.738894139 64.8353912043 549.013836256 64.2695389614 548.079467393 63.8503832656C547.147397909 63.4312389217 545.771932396 62.9596955315 543.956310508 62.4357504751C543.081588323 62.1842671871 542.231635987 61.9327777865 541.406374708 61.6812796535C540.591242739 61.4088397159 539.829738239 61.0944777468 539.121824152 60.7381911266C538.415377597 60.3819228441 537.752374482 59.9522936263 537.132647967 59.449303473C536.514167568 58.9463334041 535.95570659 58.3280873541 535.456338964 57.5945627033C534.471895512 56.1485067271 534.26874798 55.0063234798 534.840345523 54.168007722C535.388694945 53.3087658777 536.641119486 52.8791366598 538.604329636 52.8791200685C539.0951376 52.8791366598 539.608400734 52.9105738173 540.144328878 52.9734289212C540.665480386 53.0153614314 541.168434399 53.0782331266 541.653295404 53.1620466266C542.123296973 53.2249366596 542.54527383 53.2982871163 542.919224591 53.3821006162C543.315790393 53.4659481721 543.62662964 53.5392977555 543.85163057 53.6021546058C543.85163057 53.6021546058 545.113881187 56.1170573444 545.113881187 56.1170573444C544.65233868 55.9494111335 543.999160699 55.7817509509 543.154783799 55.6140767967C542.296447848 55.425473063 541.360149057 55.3311642103 540.344963273 55.3311502386C539.46514596 55.3311642103 538.815885253 55.4988243928 538.395692137 55.8341307863C537.95893549 56.1485067271 537.980191881 56.6514872748 538.460857455 57.3430724295C538.70848624 57.6993625426 538.995474745 58.0137245117 539.322075112 58.2861609564C539.671914227 58.5586201051 540.076263665 58.8101095057 540.535292107 59.040631778C541.003229741 59.250217485 541.533344821 59.4493139518 542.125765666 59.6379211784C542.718970907 59.8265484893 543.41250783 60.0256449562 544.2067261 60.2352105788C545.269838688 60.5286246306 546.242690307 60.8220299501 547.124921455 61.1154265373C547.993696253 61.3878821931 548.797759049 61.7127237968 549.537055266 62.0899513485C550.301171645 62.4671937452 551.0117196 62.9282592473 551.668403892 63.4731478548C552.310893683 63.9970911647 552.917845371 64.6467743722 553.488376446 65.4221974772C554.598579551 66.93114174 554.794712225 68.0733258606 554.070364185 68.8487524585C553.361466526 69.6241808029 551.812981563 70.0118941019 549.43120484 70.0118949751C547.771170609 70.0118941019 546.385042714 69.8861498382 545.274321326 69.6346595643C544.179931003 69.4041268133 543.422716647 69.2259878693 543.001571016 69.1002427324C543.001571016 69.1002427324 541.897131132 66.5853399938 541.897131132 66.5853399938C542.362454334 66.7110877504 543.096817805 66.8997054558 544.101261368 67.15119311C545.107505201 67.4026851303 546.301643061 67.5284302672 547.682326977 67.5284285207" />
      <path
         id="path4823"
         style=""
         d="M564.201287804 69.6346595643C564.201287804 69.6346595643 560.850505399 69.6346595643 560.850505399 69.6346595643C560.850505399 69.6346595643 548.527043857 53.2877917635 548.527043857 53.2877917635C548.527043857 53.2877917635 551.6450168 53.2877917635 551.6450168 53.2877917635C551.6450168 53.2877917635 564.201287804 69.6346595643 564.201287804 69.6346595643M547.820748238 50.3327810456C547.26952837 50.3328002567 546.668687108 50.1651400741 546.019148883 49.8298004979C545.377063937 49.4735426943 544.835917009 49.001999304 544.394778666 48.4151677075C543.953672489 47.8283788992 543.791922497 47.3673133971 543.90865568 47.0319712012C544.030089227 46.6757160173 544.361029321 46.4975770733 544.902457887 46.4975543693C545.443921005 46.4975770733 546.035121099 46.6757160173 546.67698554 47.0319712012C547.325749356 47.3673133971 547.876538118 47.8283788992 548.328427459 48.4151677075C548.780349752 49.001999304 548.945833047 49.4735426943 548.823897345 49.8298004979C548.706671403 50.1651400741 548.371997341 50.3328002567 547.820748238 50.3327810456" />
      <path
         id="path4825"
         style=""
         d="M557.413478851 53.759336027C557.996795183 53.5916915625 558.794276347 53.4135526186 559.805241727 53.224919195C560.836537244 53.036318081 562.121311216 52.9420092283 563.661094201 52.9419926369C564.776886523 52.9420092283 565.836453604 53.0887118881 566.84132292 53.3821006162C567.830610551 53.654564131 568.813416478 54.063235826 569.790241335 54.6081157012C569.858921997 54.503342932 569.981784178 54.3566402723 570.158506853 54.168007722C570.334640392 53.9794057347 570.597545104 53.8012667908 570.947089269 53.63359089C571.277905582 53.4449889028 571.690775264 53.2878083549 572.185811442 53.1620466266C572.662013541 53.0153605582 573.245707719 52.9420092283 573.937500384 52.9419926369C575.276441777 52.9420092283 576.536349116 53.1306269337 577.719445344 53.5078457531C578.886784802 53.8641393592 580.006505209 54.3775977951 581.078692403 55.0482236805C582.176323943 55.7188783825 583.220030479 56.5152633765 584.208543689 57.4373812822C585.221208798 58.3595236383 586.219078642 59.3654838605 587.201026248 60.4552645685C587.201026248 60.4552645685 595.471884124 69.6346595643 595.471884124 69.6346595643C595.471884124 69.6346595643 592.121101718 69.6346595643 592.121101718 69.6346595643C592.121101718 69.6346595643 584.538518214 61.0839902531 584.538518214 61.0839902531C583.683598801 60.1199538089 582.892120088 59.2921325306 582.164522879 58.6005237988C581.460473922 57.9089368976 580.756547859 57.3326058933 580.053322014 56.871528166C579.373955458 56.4104757624 578.693334115 56.0751553972 578.011316713 55.8655670705C577.334450115 55.6350482912 576.612548996 55.5197819157 575.844872076 55.519767944C574.783655752 55.5197819157 574.020366862 55.656005814 573.553712221 55.928439639C573.090053057 56.1799430113 572.822374874 56.4104757624 572.751480161 56.6200378921C573.397458385 57.1649457107 574.043421535 57.7622351111 574.689100152 58.4119060934C575.335309758 59.0615997796 575.962854354 59.7427183981 576.571395731 60.4552645685C576.571395731 60.4552645685 584.410699193 69.6346595643 584.410699193 69.6346595643C584.410699193 69.6346595643 581.059916788 69.6346595643 581.059916788 69.6346595643C581.059916788 69.6346595643 573.879329176 61.0839902531 573.879329176 61.0839902531C573.069741981 60.1199538089 572.317172344 59.2921325306 571.622090002 58.6005237988C570.927713022 57.9089368976 570.239587571 57.3326058933 569.558099673 56.871528166C568.900488801 56.4104757624 568.235692771 56.0751553972 567.563542058 55.8655670705C566.897557641 55.6350482912 566.192382696 55.5197819157 565.447275953 55.519767944C565.131173036 55.5197819157 564.801082559 55.53026417 564.456944647 55.5512042282C564.112748029 55.5721792156 563.78831105 55.6036154999 563.483588867 55.6455130809C563.184326432 55.6664880683 562.916090189 55.6979243526 562.678848116 55.7398219336C562.441512781 55.7817544439 562.286049227 55.8131907281 562.212521688 55.8341307863C562.212521688 55.8341307863 573.349514262 69.6346595643 573.349514262 69.6346595643C573.349514262 69.6346595643 569.998731857 69.6346595643 569.998731857 69.6346595643C569.998731857 69.6346595643 557.413478851 53.759336027 557.413478851 53.759336027" />
      <path
         id="path4827"
         style=""
         d="M606.060437623 61.4926619481C604.191549218 59.5855369769 602.239956719 58.1185121259 600.212731411 57.0915821556C598.194937038 56.0646766358 596.342747229 55.5512181999 594.649082924 55.5512042282C593.700637043 55.5512181999 592.985200447 55.5826579771 592.502532281 55.6455130809C592.042168365 55.708403114 591.693073019 55.7817509509 591.455297927 55.8655670705C591.455297927 55.8655670705 601.136387051 66.1766682988 601.136387051 66.1766682988C601.81470534 66.4700771112 602.662116092 66.753002796 603.679193061 67.025447973C604.698035339 67.2978983894 605.660237384 67.4341214145 606.564466577 67.434119668C607.516269859 67.4341214145 608.183789695 67.287419628 608.565765438 66.9940116888C608.949430203 66.6796514662 609.099020327 66.260501883 609.014485046 65.7365603195C608.907545586 65.1916690923 608.59906916 64.5629442809 608.089711528 63.8503832656C607.55863345 63.1168760794 606.881910197 62.3309698468 606.060437623 61.4926619481M609.434395282 61.4926619481C610.664440723 62.7291627804 611.613227243 63.871346901 612.278190239 64.9192169295C612.963345704 65.9670965635 613.32214537 66.8682691716 613.353532982 67.6227373734C613.380262823 68.3772090683 613.070535461 68.9640197073 612.424992934 69.3831692905C611.799692661 69.8023197469 610.812029809 70.0118941019 609.464767011 70.0118949751C608.38212553 70.0118941019 607.300294585 69.8861498382 606.220619605 69.6346595643C605.166716139 69.3831692905 604.328158343 69.142157778 603.70423691 68.911625027C603.70423691 68.911625027 609.843464159 75.4503721473 609.843464159 75.4503721473C609.843464159 75.4503721473 606.40985531 75.4503721473 606.40985531 75.4503721473C606.40985531 75.4503721473 586.382137585 53.7907723112 586.382137585 53.7907723112C586.965838582 53.6231278468 587.717572336 53.4449889028 588.636770587 53.2563554793C589.556682606 53.0467968424 590.741095312 52.9420092283 592.191613095 52.9419926369C593.530565172 52.9420092283 594.928035806 53.1411056951 596.386951717 53.5392820373C597.849782984 53.9374906891 599.323677016 54.503342932 600.809556564 55.2368413859C602.300519118 55.9703686563 603.780971133 56.8715412644 605.250042365 57.9403618299C606.725134293 58.9882484497 608.120933948 60.1723476159 609.434395282 61.4926619481" />
      <path
         id="path4829"
         style=""
         d="M628.231589434 69.9490224066C626.119927539 69.907107361 624.256046297 69.5193931888 622.643437478 68.78587989C621.036202273 68.0523683377 619.447800699 66.9101842172 617.874186125 65.3593249087C617.874186125 65.3593249087 597.969996765 45.7430835477 597.969996765 45.7430835477C597.969996765 45.7430835477 600.462991989 45.240103 600.462991989 45.240103C600.462991989 45.240103 620.678898154 64.8877806452 620.678898154 64.8877806452C621.174856384 65.3698080363 621.631824725 65.7680000967 622.049968953 66.0823594461C622.468377124 66.3967257813 622.881534541 66.6482151819 623.289540937 66.8368302676C623.697879573 67.0254505927 624.134564231 67.1721532525 624.599575664 67.2769382469C625.043163617 67.3607683382 625.559423848 67.4341214145 626.148370182 67.4969922365C626.148370182 67.4969922365 628.231589434 69.9490224066 628.231589434 69.9490224066" />
      <path
         id="path4831"
         style=""
         d="M622.522616665 61.4926619481C621.000748021 60.046602479 619.906511568 58.7891519829 619.236630776 57.7203078402C618.540228042 56.630529752 618.18612627 55.7293571439 618.174059293 55.0167873963C618.157202941 54.3042464652 618.438209601 53.7698305065 619.018331101 53.4135369004C619.595340618 53.0572756038 620.384628235 52.8791366598 621.388539771 52.8791200685C623.731019953 52.8791366598 626.292969479 53.5707340397 629.086252942 54.9539148278C631.871893603 56.3161669097 634.845935404 58.4014386839 637.996702448 61.20973539C638.137770793 61.335488386 638.325875896 61.5031485686 638.561017801 61.7127159378C638.772625517 61.9013415022 638.960882252 62.0794804462 639.125704256 62.2471327697C639.125704256 62.2471327697 626.701800218 62.2471327697 626.701800218 62.2471327697C628.654188578 63.9446973576 630.58448116 65.2335841379 632.496647706 66.1137957303C634.416170804 66.9940143085 636.413793253 67.4341214145 638.483991325 67.434119668C639.649942525 67.4341214145 640.533061045 67.3502895768 641.132505341 67.1826293942C641.731270773 66.9940143085 642.138689081 66.8158753645 642.355305796 66.6482125622C642.355305796 66.6482125622 645.555268707 69.1002427324 645.555268707 69.1002427324C645.358088216 69.2888604378 644.859870817 69.4879569046 644.059727559 69.6975321328C643.281751964 69.907107361 642.242520872 70.0118941019 640.943385132 70.0118949751C639.307398996 70.0118941019 637.661698841 69.8023197469 636.00949119 69.3831692905C634.363081763 68.9430621844 632.756821653 68.345772784 631.191105548 67.5913010892C629.630302935 66.8368328873 628.119796373 65.9461390406 626.658401945 64.9192169295C625.201714491 63.871346901 623.823922709 62.7291627804 622.522616665 61.4926619481M633.165232298 59.8894114523C631.726419914 58.5690988665 630.16691673 57.4897873144 628.491215449 56.6514741763C626.82073197 55.7922297123 625.344555213 55.3626004945 624.058474534 55.3625865228C623.336468119 55.3626004945 622.840872277 55.4988243928 622.570644095 55.7712582178C622.299089725 56.0227624634 622.195733555 56.3580819553 622.260411643 56.7772193133C622.32364307 57.1963819949 622.532492156 57.6784050198 622.887215764 58.223288388C623.263742583 58.7681944601 623.719355087 59.3235688149 624.254544401 59.8894114523C624.254544401 59.8894114523 633.165232298 59.8894114523 633.165232298 59.8894114523" />
    </g>
    <text
       xml:space="preserve"
       style="font-size:40px;font-style:normal;font-variant:normal;font-weight:500;font-stretch:normal;line-height:125%;letter-spacing:0px;word-spacing:0px;fill:#000000;fill-opacity:1;stroke:none;font-family:Ubuntu;-inkscape-font-specification:Ubuntu Medium"
       x="111.42857"
       y="14.342543"
       id="text5003"
       sodipodi:linespacing="125%"><tspan
         sodipodi:role="line"
         id="tspan5005"
         x="111.42857"
         y="14.342543"><tspan
           style="font-size:144px;font-weight:500;fill:#ff9c31;fill-opacity:1;-inkscape-font-specification:Ubuntu Medium"
           id="tspan5007">Data</tspan><tspan
           style="font-size:144px;font-weight:500;fill:#36baff;fill-opacity:1;-inkscape-font-specification:Ubuntu Medium"
           id="tspan5009">Net</tspan></tspan></text>
    <text
       sodipodi:linespacing="125%"
       id="text5011"
       y="-235.6329"
       x="111.42857"
       style="font-size:40px;font-style:normal;font-variant:normal;font-weight:500;font-stretch:normal;line-height:125%;letter-spacing:0px;word-spacing:0px;fill:#000000;fill-opacity:1;stroke:none;font-family:Ubuntu;-inkscape-font-specification:Ubuntu Medium"
       xml:space="preserve"
       transform="matrix(1,0,0,-1,0,-215.16249)"
       mask="url(#mask3836)"><tspan
         y="-235.6329"
         x="111.42857"
         id="tspan5013"
         sodipodi:role="line"><tspan
           id="tspan5015"
           style="font-size:144px;font-weight:500;fill:#ff9c31;fill-opacity:1;-inkscape-font-specification:Ubuntu Medium">Data</tspan><tspan
           id="tspan5017"
           style="font-size:144px;font-weight:500;fill:#36baff;fill-opacity:1;-inkscape-font-specification:Ubuntu Medium">Net</tspan></tspan></text>
    <rect
       style="fill:none;stroke:none;stroke-width:1;stroke-miterlimit:4;stroke-opacity:1;stroke-dasharray:none"
       id="rect5023"
       width="587.90875"
       height="185.86806"
       x="104.04571"
       y="-103.25232"
       inkscape:export-filename="/home/daniel/files/work/sts-workspace/datanet/web/misc/datanet-welcome.png"
       inkscape:export-xdpi="100.2324"
       inkscape:export-ydpi="100.2324" />
  </g>
</svg>
